<mxfile host="app.diagrams.net" modified="2021-12-28T01:47:53.004Z" agent="5.0 (Windows NT 10.0; Win64; x64) AppleWebKit/537.36 (KHTML, like Gecko) Chrome/96.0.4664.110 Safari/537.36" etag="CYlGpUcfkqJPq7ulALWD" version="16.0.3" type="github">
  <diagram id="CRU-pftgkvqWunIHmuvt" name="第 1 页">
    <mxGraphModel dx="1422" dy="772" grid="1" gridSize="10" guides="1" tooltips="1" connect="1" arrows="1" fold="1" page="0" pageScale="1" pageWidth="850" pageHeight="1100" math="0" shadow="0">
      <root>
        <mxCell id="0" />
        <mxCell id="1" parent="0" />
        <mxCell id="PBX_WppgMAGcKdW0NXfC-1" style="edgeStyle=orthogonalEdgeStyle;rounded=0;orthogonalLoop=1;jettySize=auto;html=1;entryX=0.5;entryY=0;entryDx=0;entryDy=0;fontColor=#B3B3B3;startArrow=none;startFill=0;endArrow=classic;endFill=1;strokeColor=#000000;" edge="1" parent="1" source="PBX_WppgMAGcKdW0NXfC-2" target="PBX_WppgMAGcKdW0NXfC-49">
          <mxGeometry relative="1" as="geometry" />
        </mxCell>
        <mxCell id="PBX_WppgMAGcKdW0NXfC-2" value="检测结果" style="rounded=0;whiteSpace=wrap;html=1;fillColor=#e1d5e7;strokeColor=#9673a6;" vertex="1" parent="1">
          <mxGeometry x="318" y="164" width="128" height="336" as="geometry" />
        </mxCell>
        <mxCell id="PBX_WppgMAGcKdW0NXfC-3" style="edgeStyle=orthogonalEdgeStyle;rounded=0;orthogonalLoop=1;jettySize=auto;html=1;entryX=1;entryY=0.06;entryDx=0;entryDy=0;entryPerimeter=0;startArrow=none;startFill=0;endArrow=classic;endFill=1;" edge="1" parent="1" source="PBX_WppgMAGcKdW0NXfC-4" target="PBX_WppgMAGcKdW0NXfC-2">
          <mxGeometry relative="1" as="geometry" />
        </mxCell>
        <mxCell id="PBX_WppgMAGcKdW0NXfC-4" value="供电检测" style="rounded=1;whiteSpace=wrap;html=1;fillColor=#fff2cc;strokeColor=#d6b656;" vertex="1" parent="1">
          <mxGeometry x="496" y="164" width="80" height="40" as="geometry" />
        </mxCell>
        <mxCell id="PBX_WppgMAGcKdW0NXfC-5" style="edgeStyle=orthogonalEdgeStyle;rounded=0;orthogonalLoop=1;jettySize=auto;html=1;entryX=1.006;entryY=0.441;entryDx=0;entryDy=0;entryPerimeter=0;fontColor=#B3B3B3;startArrow=none;startFill=0;endArrow=classic;endFill=1;strokeColor=#000000;" edge="1" parent="1" source="PBX_WppgMAGcKdW0NXfC-6" target="PBX_WppgMAGcKdW0NXfC-2">
          <mxGeometry relative="1" as="geometry" />
        </mxCell>
        <mxCell id="PBX_WppgMAGcKdW0NXfC-6" value="外接传感器" style="rounded=1;whiteSpace=wrap;html=1;fillColor=#dae8fc;strokeColor=#6c8ebf;" vertex="1" parent="1">
          <mxGeometry x="496" y="220" width="82" height="184" as="geometry" />
        </mxCell>
        <mxCell id="PBX_WppgMAGcKdW0NXfC-7" style="edgeStyle=orthogonalEdgeStyle;rounded=0;orthogonalLoop=1;jettySize=auto;html=1;fontColor=#B3B3B3;startArrow=none;startFill=0;endArrow=classic;endFill=1;strokeColor=#000000;" edge="1" parent="1" source="PBX_WppgMAGcKdW0NXfC-8">
          <mxGeometry relative="1" as="geometry">
            <mxPoint x="580" y="248" as="targetPoint" />
          </mxGeometry>
        </mxCell>
        <mxCell id="PBX_WppgMAGcKdW0NXfC-8" value="上仓重力传感器&lt;br&gt;下仓重力传感器" style="rounded=1;whiteSpace=wrap;html=1;fillColor=#dae8fc;strokeColor=#6c8ebf;" vertex="1" parent="1">
          <mxGeometry x="622" y="228" width="110" height="40" as="geometry" />
        </mxCell>
        <mxCell id="PBX_WppgMAGcKdW0NXfC-9" value="I2C" style="text;html=1;align=center;verticalAlign=middle;resizable=0;points=[];autosize=1;strokeColor=none;fillColor=none;" vertex="1" parent="1">
          <mxGeometry x="590" y="230" width="30" height="20" as="geometry" />
        </mxCell>
        <mxCell id="PBX_WppgMAGcKdW0NXfC-10" style="edgeStyle=orthogonalEdgeStyle;rounded=0;orthogonalLoop=1;jettySize=auto;html=1;fontColor=#B3B3B3;startArrow=none;startFill=0;endArrow=classic;endFill=1;strokeColor=#000000;" edge="1" parent="1" source="PBX_WppgMAGcKdW0NXfC-11">
          <mxGeometry relative="1" as="geometry">
            <mxPoint x="582" y="288" as="targetPoint" />
          </mxGeometry>
        </mxCell>
        <mxCell id="PBX_WppgMAGcKdW0NXfC-11" value="IMU" style="rounded=1;whiteSpace=wrap;html=1;fillColor=#dae8fc;strokeColor=#6c8ebf;" vertex="1" parent="1">
          <mxGeometry x="622" y="276" width="112" height="24" as="geometry" />
        </mxCell>
        <mxCell id="PBX_WppgMAGcKdW0NXfC-12" value="UART" style="text;html=1;align=center;verticalAlign=middle;resizable=0;points=[];autosize=1;strokeColor=none;fillColor=none;" vertex="1" parent="1">
          <mxGeometry x="583" y="272" width="44" height="20" as="geometry" />
        </mxCell>
        <mxCell id="PBX_WppgMAGcKdW0NXfC-13" style="edgeStyle=orthogonalEdgeStyle;rounded=0;orthogonalLoop=1;jettySize=auto;html=1;entryX=-0.005;entryY=0.347;entryDx=0;entryDy=0;entryPerimeter=0;fontColor=#B3B3B3;startArrow=classic;startFill=1;endArrow=classic;endFill=1;strokeColor=#000000;" edge="1" parent="1" source="PBX_WppgMAGcKdW0NXfC-14" target="PBX_WppgMAGcKdW0NXfC-22">
          <mxGeometry relative="1" as="geometry" />
        </mxCell>
        <mxCell id="PBX_WppgMAGcKdW0NXfC-14" value="主控制器通信" style="rounded=1;whiteSpace=wrap;html=1;fillColor=#dae8fc;strokeColor=#6c8ebf;" vertex="1" parent="1">
          <mxGeometry x="30" y="220" width="112" height="32" as="geometry" />
        </mxCell>
        <mxCell id="PBX_WppgMAGcKdW0NXfC-15" style="edgeStyle=orthogonalEdgeStyle;rounded=0;orthogonalLoop=1;jettySize=auto;html=1;entryX=-0.005;entryY=0.078;entryDx=0;entryDy=0;entryPerimeter=0;fontColor=#B3B3B3;startArrow=classic;startFill=1;endArrow=classic;endFill=1;strokeColor=#000000;" edge="1" parent="1" source="PBX_WppgMAGcKdW0NXfC-16" target="PBX_WppgMAGcKdW0NXfC-22">
          <mxGeometry relative="1" as="geometry" />
        </mxCell>
        <mxCell id="PBX_WppgMAGcKdW0NXfC-16" value="2.4G遥控" style="rounded=1;whiteSpace=wrap;html=1;fillColor=#dae8fc;strokeColor=#6c8ebf;" vertex="1" parent="1">
          <mxGeometry x="32" y="164" width="110" height="32" as="geometry" />
        </mxCell>
        <mxCell id="PBX_WppgMAGcKdW0NXfC-17" value="SPI" style="text;html=1;align=center;verticalAlign=middle;resizable=0;points=[];autosize=1;strokeColor=none;fillColor=none;" vertex="1" parent="1">
          <mxGeometry x="150" y="158" width="30" height="20" as="geometry" />
        </mxCell>
        <mxCell id="PBX_WppgMAGcKdW0NXfC-18" style="edgeStyle=orthogonalEdgeStyle;rounded=0;orthogonalLoop=1;jettySize=auto;html=1;fontColor=#B3B3B3;startArrow=none;startFill=0;endArrow=classic;endFill=1;strokeColor=#000000;" edge="1" parent="1" source="PBX_WppgMAGcKdW0NXfC-19">
          <mxGeometry relative="1" as="geometry">
            <mxPoint x="581.8000000000002" y="357" as="targetPoint" />
          </mxGeometry>
        </mxCell>
        <mxCell id="PBX_WppgMAGcKdW0NXfC-19" value="防跌落/安全触边&lt;br&gt;称重传感器" style="rounded=1;whiteSpace=wrap;html=1;fillColor=#dae8fc;strokeColor=#6c8ebf;" vertex="1" parent="1">
          <mxGeometry x="622" y="340" width="110" height="34" as="geometry" />
        </mxCell>
        <mxCell id="PBX_WppgMAGcKdW0NXfC-20" value="RS485" style="text;html=1;align=center;verticalAlign=middle;resizable=0;points=[];autosize=1;strokeColor=none;fillColor=none;" vertex="1" parent="1">
          <mxGeometry x="578" y="302" width="48" height="20" as="geometry" />
        </mxCell>
        <mxCell id="PBX_WppgMAGcKdW0NXfC-21" style="edgeStyle=orthogonalEdgeStyle;rounded=0;orthogonalLoop=1;jettySize=auto;html=1;startArrow=none;startFill=0;" edge="1" parent="1" source="PBX_WppgMAGcKdW0NXfC-22">
          <mxGeometry relative="1" as="geometry">
            <mxPoint x="316" y="268" as="targetPoint" />
          </mxGeometry>
        </mxCell>
        <mxCell id="PBX_WppgMAGcKdW0NXfC-22" value="外部通信检测" style="rounded=1;whiteSpace=wrap;html=1;fillColor=#dae8fc;strokeColor=#6c8ebf;" vertex="1" parent="1">
          <mxGeometry x="190" y="164" width="80" height="208" as="geometry" />
        </mxCell>
        <mxCell id="PBX_WppgMAGcKdW0NXfC-23" style="edgeStyle=orthogonalEdgeStyle;rounded=0;orthogonalLoop=1;jettySize=auto;html=1;entryX=-0.003;entryY=0.834;entryDx=0;entryDy=0;entryPerimeter=0;fontColor=#B3B3B3;startArrow=none;startFill=0;endArrow=classic;endFill=1;strokeColor=#000000;" edge="1" parent="1" source="PBX_WppgMAGcKdW0NXfC-24" target="PBX_WppgMAGcKdW0NXfC-2">
          <mxGeometry relative="1" as="geometry" />
        </mxCell>
        <mxCell id="PBX_WppgMAGcKdW0NXfC-24" value="电机驱动" style="rounded=1;whiteSpace=wrap;html=1;fillColor=#ffe6cc;strokeColor=#d79b00;" vertex="1" parent="1">
          <mxGeometry x="190" y="388" width="80" height="112" as="geometry" />
        </mxCell>
        <mxCell id="PBX_WppgMAGcKdW0NXfC-25" value="CAN1" style="text;html=1;align=center;verticalAlign=middle;resizable=0;points=[];autosize=1;strokeColor=none;fillColor=none;" vertex="1" parent="1">
          <mxGeometry x="143" y="214" width="44" height="20" as="geometry" />
        </mxCell>
        <mxCell id="PBX_WppgMAGcKdW0NXfC-26" style="edgeStyle=orthogonalEdgeStyle;rounded=0;orthogonalLoop=1;jettySize=auto;html=1;entryX=0.004;entryY=0.195;entryDx=0;entryDy=0;entryPerimeter=0;startArrow=classic;startFill=1;endArrow=classic;endFill=1;" edge="1" parent="1" source="PBX_WppgMAGcKdW0NXfC-27" target="PBX_WppgMAGcKdW0NXfC-24">
          <mxGeometry relative="1" as="geometry" />
        </mxCell>
        <mxCell id="PBX_WppgMAGcKdW0NXfC-27" value="底盘驱动器" style="rounded=1;whiteSpace=wrap;html=1;fillColor=#dae8fc;strokeColor=#6c8ebf;" vertex="1" parent="1">
          <mxGeometry x="32" y="390" width="110" height="40" as="geometry" />
        </mxCell>
        <mxCell id="PBX_WppgMAGcKdW0NXfC-28" style="edgeStyle=orthogonalEdgeStyle;rounded=0;orthogonalLoop=1;jettySize=auto;html=1;entryX=-0.008;entryY=0.82;entryDx=0;entryDy=0;entryPerimeter=0;startArrow=classic;startFill=1;endArrow=classic;endFill=1;strokeColor=#B3B3B3;" edge="1" parent="1" source="PBX_WppgMAGcKdW0NXfC-29" target="PBX_WppgMAGcKdW0NXfC-24">
          <mxGeometry relative="1" as="geometry" />
        </mxCell>
        <mxCell id="PBX_WppgMAGcKdW0NXfC-29" value="&lt;font color=&quot;#b3b3b3&quot;&gt;OTHERS&lt;/font&gt;" style="rounded=1;whiteSpace=wrap;html=1;fillColor=#f5f5f5;strokeColor=#666666;fontColor=#333333;" vertex="1" parent="1">
          <mxGeometry x="32" y="460" width="110" height="40" as="geometry" />
        </mxCell>
        <mxCell id="PBX_WppgMAGcKdW0NXfC-30" value="CAN2" style="text;html=1;align=center;verticalAlign=middle;resizable=0;points=[];autosize=1;strokeColor=none;fillColor=none;" vertex="1" parent="1">
          <mxGeometry x="143" y="388" width="44" height="20" as="geometry" />
        </mxCell>
        <mxCell id="PBX_WppgMAGcKdW0NXfC-31" value="&lt;font color=&quot;#b3b3b3&quot;&gt;CAN2&lt;/font&gt;" style="text;html=1;align=center;verticalAlign=middle;resizable=0;points=[];autosize=1;strokeColor=none;fillColor=none;" vertex="1" parent="1">
          <mxGeometry x="144" y="458" width="44" height="20" as="geometry" />
        </mxCell>
        <mxCell id="PBX_WppgMAGcKdW0NXfC-32" style="edgeStyle=orthogonalEdgeStyle;rounded=0;orthogonalLoop=1;jettySize=auto;html=1;fontColor=#B3B3B3;startArrow=classic;startFill=1;endArrow=classic;endFill=1;strokeColor=#000000;" edge="1" parent="1" source="PBX_WppgMAGcKdW0NXfC-33">
          <mxGeometry relative="1" as="geometry">
            <mxPoint x="188" y="292" as="targetPoint" />
          </mxGeometry>
        </mxCell>
        <mxCell id="PBX_WppgMAGcKdW0NXfC-33" value="预留接口" style="rounded=1;whiteSpace=wrap;html=1;fillColor=#dae8fc;strokeColor=#6c8ebf;" vertex="1" parent="1">
          <mxGeometry x="31" y="276" width="111" height="32" as="geometry" />
        </mxCell>
        <mxCell id="PBX_WppgMAGcKdW0NXfC-34" style="edgeStyle=orthogonalEdgeStyle;rounded=0;orthogonalLoop=1;jettySize=auto;html=1;entryX=-0.005;entryY=0.874;entryDx=0;entryDy=0;entryPerimeter=0;fontColor=#B3B3B3;startArrow=classic;startFill=1;endArrow=classic;endFill=1;strokeColor=#000000;" edge="1" parent="1" source="PBX_WppgMAGcKdW0NXfC-35" target="PBX_WppgMAGcKdW0NXfC-22">
          <mxGeometry relative="1" as="geometry" />
        </mxCell>
        <mxCell id="PBX_WppgMAGcKdW0NXfC-35" value="OTHERS" style="rounded=1;whiteSpace=wrap;html=1;fillColor=#f5f5f5;strokeColor=#666666;fontColor=#333333;" vertex="1" parent="1">
          <mxGeometry x="32" y="330" width="111" height="32" as="geometry" />
        </mxCell>
        <mxCell id="PBX_WppgMAGcKdW0NXfC-36" style="edgeStyle=orthogonalEdgeStyle;rounded=0;orthogonalLoop=1;jettySize=auto;html=1;fontColor=#B3B3B3;startArrow=none;startFill=0;endArrow=classic;endFill=1;strokeColor=#000000;" edge="1" parent="1" source="PBX_WppgMAGcKdW0NXfC-37">
          <mxGeometry relative="1" as="geometry">
            <mxPoint x="580" y="320" as="targetPoint" />
          </mxGeometry>
        </mxCell>
        <mxCell id="PBX_WppgMAGcKdW0NXfC-37" value="超声波" style="rounded=1;whiteSpace=wrap;html=1;fillColor=#dae8fc;strokeColor=#6c8ebf;" vertex="1" parent="1">
          <mxGeometry x="622" y="308" width="112" height="24" as="geometry" />
        </mxCell>
        <mxCell id="PBX_WppgMAGcKdW0NXfC-38" value="I/O" style="text;html=1;align=center;verticalAlign=middle;resizable=0;points=[];autosize=1;strokeColor=none;fillColor=none;" vertex="1" parent="1">
          <mxGeometry x="590" y="334" width="28" height="20" as="geometry" />
        </mxCell>
        <mxCell id="PBX_WppgMAGcKdW0NXfC-39" style="edgeStyle=orthogonalEdgeStyle;rounded=0;orthogonalLoop=1;jettySize=auto;html=1;entryX=1.002;entryY=0.955;entryDx=0;entryDy=0;entryPerimeter=0;fontColor=#B3B3B3;startArrow=none;startFill=0;endArrow=classic;endFill=1;strokeColor=#000000;" edge="1" parent="1" source="PBX_WppgMAGcKdW0NXfC-40" target="PBX_WppgMAGcKdW0NXfC-6">
          <mxGeometry relative="1" as="geometry" />
        </mxCell>
        <mxCell id="PBX_WppgMAGcKdW0NXfC-40" value="OTHERS" style="rounded=1;whiteSpace=wrap;html=1;" vertex="1" parent="1">
          <mxGeometry x="621" y="384" width="112" height="24" as="geometry" />
        </mxCell>
        <mxCell id="PBX_WppgMAGcKdW0NXfC-41" style="edgeStyle=orthogonalEdgeStyle;rounded=0;orthogonalLoop=1;jettySize=auto;html=1;entryX=1;entryY=0.881;entryDx=0;entryDy=0;entryPerimeter=0;fontColor=#B3B3B3;startArrow=none;startFill=0;endArrow=classic;endFill=1;strokeColor=#000000;" edge="1" parent="1" source="PBX_WppgMAGcKdW0NXfC-42" target="PBX_WppgMAGcKdW0NXfC-2">
          <mxGeometry relative="1" as="geometry" />
        </mxCell>
        <mxCell id="PBX_WppgMAGcKdW0NXfC-42" value="板上硬件" style="rounded=1;whiteSpace=wrap;html=1;fillColor=#dae8fc;strokeColor=#6c8ebf;" vertex="1" parent="1">
          <mxGeometry x="494" y="420" width="80" height="80" as="geometry" />
        </mxCell>
        <mxCell id="PBX_WppgMAGcKdW0NXfC-43" style="edgeStyle=orthogonalEdgeStyle;rounded=0;orthogonalLoop=1;jettySize=auto;html=1;fontColor=#B3B3B3;startArrow=classic;startFill=1;endArrow=classic;endFill=1;strokeColor=#000000;" edge="1" parent="1" source="PBX_WppgMAGcKdW0NXfC-44">
          <mxGeometry relative="1" as="geometry">
            <mxPoint x="576" y="442" as="targetPoint" />
          </mxGeometry>
        </mxCell>
        <mxCell id="PBX_WppgMAGcKdW0NXfC-44" value="EEPROM" style="rounded=1;whiteSpace=wrap;html=1;fillColor=#dae8fc;strokeColor=#6c8ebf;" vertex="1" parent="1">
          <mxGeometry x="622" y="430" width="112" height="24" as="geometry" />
        </mxCell>
        <mxCell id="PBX_WppgMAGcKdW0NXfC-45" style="edgeStyle=orthogonalEdgeStyle;rounded=0;orthogonalLoop=1;jettySize=auto;html=1;fontColor=#B3B3B3;startArrow=none;startFill=0;endArrow=classic;endFill=1;strokeColor=#000000;" edge="1" parent="1" source="PBX_WppgMAGcKdW0NXfC-46">
          <mxGeometry relative="1" as="geometry">
            <mxPoint x="576" y="479.9999999999998" as="targetPoint" />
          </mxGeometry>
        </mxCell>
        <mxCell id="PBX_WppgMAGcKdW0NXfC-46" value="OTHERS" style="rounded=1;whiteSpace=wrap;html=1;fillColor=#f5f5f5;strokeColor=#666666;fontColor=#333333;" vertex="1" parent="1">
          <mxGeometry x="622" y="468" width="112" height="24" as="geometry" />
        </mxCell>
        <mxCell id="PBX_WppgMAGcKdW0NXfC-47" value="ADC" style="text;html=1;align=center;verticalAlign=middle;resizable=0;points=[];autosize=1;strokeColor=none;fillColor=none;" vertex="1" parent="1">
          <mxGeometry x="455" y="162" width="36" height="20" as="geometry" />
        </mxCell>
        <mxCell id="PBX_WppgMAGcKdW0NXfC-48" style="edgeStyle=orthogonalEdgeStyle;rounded=0;orthogonalLoop=1;jettySize=auto;html=1;fontColor=#B3B3B3;startArrow=none;startFill=0;endArrow=classic;endFill=1;strokeColor=#000000;" edge="1" parent="1" source="PBX_WppgMAGcKdW0NXfC-49">
          <mxGeometry relative="1" as="geometry">
            <mxPoint x="383" y="589.9999999999998" as="targetPoint" />
          </mxGeometry>
        </mxCell>
        <mxCell id="PBX_WppgMAGcKdW0NXfC-49" value="根据结果选择运行模式" style="rounded=1;whiteSpace=wrap;html=1;strokeColor=#82b366;fillColor=#d5e8d4;" vertex="1" parent="1">
          <mxGeometry x="318" y="528" width="130" height="40" as="geometry" />
        </mxCell>
        <mxCell id="PBX_WppgMAGcKdW0NXfC-50" value="检测结果上传" style="rounded=1;whiteSpace=wrap;html=1;strokeColor=#82b366;fillColor=#d5e8d4;" vertex="1" parent="1">
          <mxGeometry x="317" y="588" width="130" height="40" as="geometry" />
        </mxCell>
        <mxCell id="PBX_WppgMAGcKdW0NXfC-51" value="485" style="text;html=1;align=center;verticalAlign=middle;resizable=0;points=[];autosize=1;strokeColor=none;fillColor=none;" vertex="1" parent="1">
          <mxGeometry x="148" y="270" width="32" height="20" as="geometry" />
        </mxCell>
        <mxCell id="PBX_WppgMAGcKdW0NXfC-52" value="I2C" style="text;html=1;align=center;verticalAlign=middle;resizable=0;points=[];autosize=1;strokeColor=none;fillColor=none;" vertex="1" parent="1">
          <mxGeometry x="584" y="424" width="30" height="20" as="geometry" />
        </mxCell>
        <mxCell id="PBX_WppgMAGcKdW0NXfC-53" style="edgeStyle=orthogonalEdgeStyle;rounded=0;orthogonalLoop=1;jettySize=auto;html=1;entryX=0.5;entryY=0;entryDx=0;entryDy=0;fontColor=#B3B3B3;startArrow=none;startFill=0;endArrow=classic;endFill=1;strokeColor=#000000;" edge="1" parent="1" source="PBX_WppgMAGcKdW0NXfC-54" target="PBX_WppgMAGcKdW0NXfC-2">
          <mxGeometry relative="1" as="geometry" />
        </mxCell>
        <mxCell id="PBX_WppgMAGcKdW0NXfC-54" value="上电检测启动" style="rounded=1;whiteSpace=wrap;html=1;strokeColor=#82b366;fillColor=#d5e8d4;" vertex="1" parent="1">
          <mxGeometry x="318" y="80" width="128" height="44" as="geometry" />
        </mxCell>
        <mxCell id="PBX_WppgMAGcKdW0NXfC-55" style="edgeStyle=orthogonalEdgeStyle;rounded=0;orthogonalLoop=1;jettySize=auto;html=1;entryX=0.5;entryY=0;entryDx=0;entryDy=0;fontColor=#B3B3B3;startArrow=none;startFill=0;endArrow=classic;endFill=1;strokeColor=#000000;" edge="1" parent="1" source="PBX_WppgMAGcKdW0NXfC-56" target="PBX_WppgMAGcKdW0NXfC-58">
          <mxGeometry relative="1" as="geometry" />
        </mxCell>
        <mxCell id="PBX_WppgMAGcKdW0NXfC-56" value="保存数据" style="rounded=0;whiteSpace=wrap;html=1;fillColor=#d5e8d4;strokeColor=#82b366;" vertex="1" parent="1">
          <mxGeometry x="1003" y="256" width="110" height="40" as="geometry" />
        </mxCell>
        <mxCell id="PBX_WppgMAGcKdW0NXfC-57" style="edgeStyle=orthogonalEdgeStyle;rounded=0;orthogonalLoop=1;jettySize=auto;html=1;entryX=0.5;entryY=0;entryDx=0;entryDy=0;fontColor=#B3B3B3;startArrow=none;startFill=0;endArrow=classic;endFill=1;strokeColor=#000000;" edge="1" parent="1" source="PBX_WppgMAGcKdW0NXfC-58" target="PBX_WppgMAGcKdW0NXfC-60">
          <mxGeometry relative="1" as="geometry" />
        </mxCell>
        <mxCell id="PBX_WppgMAGcKdW0NXfC-58" value="写入数据块" style="rounded=0;whiteSpace=wrap;html=1;fillColor=#dae8fc;strokeColor=#6c8ebf;" vertex="1" parent="1">
          <mxGeometry x="1003" y="318" width="110" height="40" as="geometry" />
        </mxCell>
        <mxCell id="PBX_WppgMAGcKdW0NXfC-59" style="edgeStyle=orthogonalEdgeStyle;rounded=0;orthogonalLoop=1;jettySize=auto;html=1;entryX=0.5;entryY=0;entryDx=0;entryDy=0;fontColor=#B3B3B3;startArrow=none;startFill=0;endArrow=classic;endFill=1;strokeColor=#000000;" edge="1" parent="1" source="PBX_WppgMAGcKdW0NXfC-60" target="PBX_WppgMAGcKdW0NXfC-63">
          <mxGeometry relative="1" as="geometry" />
        </mxCell>
        <mxCell id="PBX_WppgMAGcKdW0NXfC-60" value="读取之前写入的数据" style="rounded=0;whiteSpace=wrap;html=1;fillColor=#dae8fc;strokeColor=#6c8ebf;" vertex="1" parent="1">
          <mxGeometry x="1003" y="380" width="110" height="40" as="geometry" />
        </mxCell>
        <mxCell id="PBX_WppgMAGcKdW0NXfC-61" style="edgeStyle=orthogonalEdgeStyle;rounded=0;orthogonalLoop=1;jettySize=auto;html=1;fontColor=#B3B3B3;startArrow=none;startFill=0;endArrow=classic;endFill=1;strokeColor=#000000;" edge="1" parent="1" source="PBX_WppgMAGcKdW0NXfC-63">
          <mxGeometry relative="1" as="geometry">
            <mxPoint x="1058" y="533.3333333333335" as="targetPoint" />
          </mxGeometry>
        </mxCell>
        <mxCell id="PBX_WppgMAGcKdW0NXfC-62" style="edgeStyle=orthogonalEdgeStyle;rounded=0;orthogonalLoop=1;jettySize=auto;html=1;entryX=0;entryY=0.5;entryDx=0;entryDy=0;fontColor=#B3B3B3;startArrow=none;startFill=0;endArrow=classic;endFill=1;strokeColor=#CC0000;" edge="1" parent="1" source="PBX_WppgMAGcKdW0NXfC-63" target="PBX_WppgMAGcKdW0NXfC-58">
          <mxGeometry relative="1" as="geometry">
            <Array as="points">
              <mxPoint x="965" y="476" />
              <mxPoint x="965" y="338" />
            </Array>
          </mxGeometry>
        </mxCell>
        <mxCell id="PBX_WppgMAGcKdW0NXfC-63" value="读取数据和写入&lt;br&gt;数据一致" style="rhombus;whiteSpace=wrap;html=1;rounded=0;strokeColor=#6c8ebf;fillColor=#dae8fc;" vertex="1" parent="1">
          <mxGeometry x="997.5" y="439" width="121" height="73" as="geometry" />
        </mxCell>
        <mxCell id="PBX_WppgMAGcKdW0NXfC-64" value="保存数据成功" style="rounded=0;whiteSpace=wrap;html=1;fillColor=#d5e8d4;strokeColor=#82b366;" vertex="1" parent="1">
          <mxGeometry x="1001" y="534" width="110" height="40" as="geometry" />
        </mxCell>
        <mxCell id="PBX_WppgMAGcKdW0NXfC-65" value="&lt;font color=&quot;#cc0000&quot;&gt;否&lt;/font&gt;" style="text;html=1;align=center;verticalAlign=middle;resizable=0;points=[];autosize=1;strokeColor=none;fillColor=none;fontColor=#B3B3B3;" vertex="1" parent="1">
          <mxGeometry x="971" y="451" width="22" height="18" as="geometry" />
        </mxCell>
        <mxCell id="PBX_WppgMAGcKdW0NXfC-66" value="&lt;font color=&quot;#000000&quot;&gt;是&lt;/font&gt;" style="text;html=1;align=center;verticalAlign=middle;resizable=0;points=[];autosize=1;strokeColor=none;fillColor=none;fontColor=#CC0000;" vertex="1" parent="1">
          <mxGeometry x="1034" y="510" width="22" height="18" as="geometry" />
        </mxCell>
        <mxCell id="PBX_WppgMAGcKdW0NXfC-67" style="edgeStyle=orthogonalEdgeStyle;rounded=0;orthogonalLoop=1;jettySize=auto;html=1;entryX=0.5;entryY=0;entryDx=0;entryDy=0;fontColor=#B3B3B3;startArrow=none;startFill=0;endArrow=classic;endFill=1;strokeColor=#000000;" edge="1" parent="1" source="PBX_WppgMAGcKdW0NXfC-68" target="PBX_WppgMAGcKdW0NXfC-70">
          <mxGeometry relative="1" as="geometry" />
        </mxCell>
        <mxCell id="PBX_WppgMAGcKdW0NXfC-68" value="读取数据" style="rounded=0;whiteSpace=wrap;html=1;fillColor=#d5e8d4;strokeColor=#82b366;" vertex="1" parent="1">
          <mxGeometry x="1233" y="256" width="110" height="40" as="geometry" />
        </mxCell>
        <mxCell id="PBX_WppgMAGcKdW0NXfC-69" style="edgeStyle=orthogonalEdgeStyle;rounded=0;orthogonalLoop=1;jettySize=auto;html=1;entryX=0.5;entryY=0;entryDx=0;entryDy=0;fontColor=#B3B3B3;startArrow=none;startFill=0;endArrow=classic;endFill=1;strokeColor=#000000;" edge="1" parent="1" source="PBX_WppgMAGcKdW0NXfC-70" target="PBX_WppgMAGcKdW0NXfC-72">
          <mxGeometry relative="1" as="geometry" />
        </mxCell>
        <mxCell id="PBX_WppgMAGcKdW0NXfC-70" value="读取数据块" style="rounded=0;whiteSpace=wrap;html=1;fillColor=#dae8fc;strokeColor=#6c8ebf;" vertex="1" parent="1">
          <mxGeometry x="1233" y="318" width="110" height="40" as="geometry" />
        </mxCell>
        <mxCell id="PBX_WppgMAGcKdW0NXfC-71" style="edgeStyle=orthogonalEdgeStyle;rounded=0;orthogonalLoop=1;jettySize=auto;html=1;entryX=0.5;entryY=0;entryDx=0;entryDy=0;fontColor=#B3B3B3;startArrow=none;startFill=0;endArrow=classic;endFill=1;strokeColor=#000000;" edge="1" parent="1" source="PBX_WppgMAGcKdW0NXfC-72" target="PBX_WppgMAGcKdW0NXfC-75">
          <mxGeometry relative="1" as="geometry" />
        </mxCell>
        <mxCell id="PBX_WppgMAGcKdW0NXfC-72" value="计算读取数据的CheckSum" style="rounded=0;whiteSpace=wrap;html=1;fillColor=#dae8fc;strokeColor=#6c8ebf;" vertex="1" parent="1">
          <mxGeometry x="1233" y="380" width="110" height="40" as="geometry" />
        </mxCell>
        <mxCell id="PBX_WppgMAGcKdW0NXfC-73" style="edgeStyle=orthogonalEdgeStyle;rounded=0;orthogonalLoop=1;jettySize=auto;html=1;fontColor=#B3B3B3;startArrow=none;startFill=0;endArrow=classic;endFill=1;strokeColor=#000000;" edge="1" parent="1" source="PBX_WppgMAGcKdW0NXfC-75">
          <mxGeometry relative="1" as="geometry">
            <mxPoint x="1288" y="533.3333333333335" as="targetPoint" />
          </mxGeometry>
        </mxCell>
        <mxCell id="PBX_WppgMAGcKdW0NXfC-74" style="edgeStyle=orthogonalEdgeStyle;rounded=0;orthogonalLoop=1;jettySize=auto;html=1;entryX=0;entryY=0.5;entryDx=0;entryDy=0;fontColor=#B3B3B3;startArrow=none;startFill=0;endArrow=classic;endFill=1;strokeColor=#CC0000;" edge="1" parent="1" source="PBX_WppgMAGcKdW0NXfC-75" target="PBX_WppgMAGcKdW0NXfC-70">
          <mxGeometry relative="1" as="geometry">
            <Array as="points">
              <mxPoint x="1195" y="476" />
              <mxPoint x="1195" y="338" />
            </Array>
          </mxGeometry>
        </mxCell>
        <mxCell id="PBX_WppgMAGcKdW0NXfC-75" value="计算CheckSum等于&lt;br&gt;读取CheckSum" style="rhombus;whiteSpace=wrap;html=1;rounded=0;strokeColor=#6c8ebf;fillColor=#dae8fc;" vertex="1" parent="1">
          <mxGeometry x="1227.5" y="439" width="121" height="73" as="geometry" />
        </mxCell>
        <mxCell id="PBX_WppgMAGcKdW0NXfC-76" value="读取数据成功" style="rounded=0;whiteSpace=wrap;html=1;fillColor=#d5e8d4;strokeColor=#82b366;" vertex="1" parent="1">
          <mxGeometry x="1231" y="534" width="110" height="40" as="geometry" />
        </mxCell>
        <mxCell id="PBX_WppgMAGcKdW0NXfC-77" value="&lt;font color=&quot;#cc0000&quot;&gt;否&lt;/font&gt;" style="text;html=1;align=center;verticalAlign=middle;resizable=0;points=[];autosize=1;strokeColor=none;fillColor=none;fontColor=#B3B3B3;" vertex="1" parent="1">
          <mxGeometry x="1201" y="451" width="22" height="18" as="geometry" />
        </mxCell>
        <mxCell id="PBX_WppgMAGcKdW0NXfC-78" value="&lt;font color=&quot;#000000&quot;&gt;是&lt;/font&gt;" style="text;html=1;align=center;verticalAlign=middle;resizable=0;points=[];autosize=1;strokeColor=none;fillColor=none;fontColor=#CC0000;" vertex="1" parent="1">
          <mxGeometry x="1264" y="510" width="22" height="18" as="geometry" />
        </mxCell>
      </root>
    </mxGraphModel>
  </diagram>
</mxfile>
